<svg xmlns="http://www.w3.org/2000/svg" viewBox="0 0 200 200" width="200" height="200">
    
    
        <circle cx="100" cy="100" r="80" stroke="#C5A059" stroke-width="3" fill="none"/>
        <circle cx="100" cy="100" r="72" stroke="#C5A059" stroke-width="1.5" fill="none"/>
        <circle cx="100" cy="100" r="16" stroke="#C5A059" stroke-width="2" fill="none"/>
        <path d="M 32,60 Q 100,105 168,60 M 32,80 Q 100,125 168,80" stroke="#C5A059" stroke-width="2" fill="none"/>
        <path d="M 32,140 Q 100,95 168,140 M 32,120 Q 100,75 168,120" stroke="#C5A059" stroke-width="2" fill="none"/>
        <path d="M 60,32 Q 105,100 60,168 M 80,32 Q 125,100 80,168" stroke="#C5A059" stroke-width="2" fill="none"/>
        <path d="M 140,32 Q 95,100 140,168 M 120,32 Q 75,100 120,168" stroke="#C5A059" stroke-width="2" fill="none"/>
        <circle cx="100" cy="20" r="3" fill="#C5A059"/>
        <circle cx="100" cy="180" r="3" fill="#C5A059"/>
        <circle cx="20" cy="100" r="3" fill="#C5A059"/>
        <circle cx="180" cy="100" r="3" fill="#C5A059"/>
        
</svg>
