<svg xmlns="http://www.w3.org/2000/svg" viewBox="0 0 800 80" width="800" height="80">
  <defs>
    <pattern id="oyuPattern" width="120" height="80" patternUnits="userSpaceOnUse">
      <path d="M 60,10 Q 30,30 20,50 Q 15,65 30,70 Q 45,70 45,55 Q 45,40 30,42" fill="none" stroke="#58111A" stroke-width="3"/>
      <path d="M 60,10 Q 90,30 100,50 Q 105,65 90,70 Q 75,70 75,55 Q 75,40 90,42" fill="none" stroke="#58111A" stroke-width="3"/>
      <path d="M 60,70 L 60,10" stroke="#C5A059" stroke-width="2"/>
      <circle cx="60" cy="40" r="4" fill="#C5A059"/>
      <circle cx="0" cy="40" r="3" fill="#58111A"/>
      <circle cx="120" cy="40" r="3" fill="#58111A"/>
    </pattern>
  </defs>
  <line x1="0" y1="10" x2="800" y2="10" stroke="#C5A059" stroke-width="1.5"/>
  <rect x="0" y="10" width="800" height="60" fill="url(#oyuPattern)"/>
  <line x1="0" y1="70" x2="800" y2="70" stroke="#C5A059" stroke-width="1.5"/>
</svg>
